<?xml version="1.0" encoding="utf-8"?>
<!-- Generator: Adobe Illustrator 26.3.1, SVG Export Plug-In . SVG Version: 6.00 Build 0)  -->
<svg version="1.1" id="Layer_1" xmlns="http://www.w3.org/2000/svg" xmlns:xlink="http://www.w3.org/1999/xlink" x="0px" y="0px"
	 viewBox="0 0 768 480" style="enable-background:new 0 0 768 480;" xml:space="preserve">
<style type="text/css">
	.st0{fill:#FFFFFF;}
	.st1{fill:#015486;}
	.st2{fill:#8FD8FF;}
	.st3{clip-path:url(#SVGID_00000036223284981853834140000006910744115640945591_);}
	.st4{clip-path:url(#SVGID_00000164490637617401156580000007890143689275741349_);}
</style>
<rect x="-76.8" y="-48" class="st0" width="921.6" height="576"/>
<rect x="-76.8" y="-48" class="st0" width="921.6" height="576"/>
<rect x="-76.8" y="-48" class="st1" width="921.6" height="576"/>
<path class="st2" d="M422.8,241.5c-75.7,16.2-149.5-97.7-261.1-42.8C268.1,164.5,319.6,271.4,422.8,241.5"/>
<path class="st0" d="M455.3,174.1c-75.7,16.2-149.5-97.7-261.1-42.8C300.6,97.1,352.1,204.1,455.3,174.1"/>
<g>
	<defs>
		<rect id="SVGID_1_" x="392" y="146.7" width="263" height="57.3"/>
	</defs>
	<clipPath id="SVGID_00000135663765833976227340000009124111780431974318_">
		<use xlink:href="#SVGID_1_"  style="overflow:visible;"/>
	</clipPath>
	<g style="clip-path:url(#SVGID_00000135663765833976227340000009124111780431974318_);">
		<path class="st2" d="M655.1,155.1c-74.8-19.8-154.1,90.4-262.9,30.3C496.9,224.6,553.5,120.2,655.1,155.1"/>
	</g>
</g>
<g>
	<defs>
		<rect id="SVGID_00000150786807873352915500000007411890605547152264_" x="113.6" y="142.7" width="487.7" height="97.3"/>
	</defs>
	<clipPath id="SVGID_00000144305276656763076500000010599843244524467379_">
		<use xlink:href="#SVGID_00000150786807873352915500000007411890605547152264_"  style="overflow:visible;"/>
	</clipPath>
	<g style="clip-path:url(#SVGID_00000144305276656763076500000010599843244524467379_);">
		<path class="st0" d="M600.6,189.5C458,339,310,95.2,113.6,189.5C295.7,42,350.5,308.9,600.6,189.5"/>
	</g>
</g>
<g>
	<g transform="translate(62.297123, 256.232326)">
		<g>
			<path class="st0" d="M31.5,85.4h21.6V46.3c0-11.8,6.5-18.9,16.4-18.9c9.2,0,14.7,6.2,14.7,17.2v40.8h21.6v-43
				C105.8,21.7,94.2,9,74.9,9c-8.4,0-16.2,2.6-21.8,7.7v-36.2H31.5V85.4z"/>
		</g>
	</g>
</g>
<g>
	<g transform="translate(128.858297, 256.232326)">
		<g>
			<path class="st0" d="M50.2,85.4h74.4V65.7H85.8l18.7-16.3c13.5-11.2,18.3-22.3,18.3-33.3c0-19.3-14.6-31.9-35.7-31.9
				c-21.8,0-35.4,13.2-36,35.3h20.6c0.4-10.2,6.1-16,15-16c8.6,0,14.5,5.5,14.5,13.6c0,6.1-3.3,11.3-9.9,17.3l-41,35.2V85.4z"/>
		</g>
	</g>
</g>
<g>
	<g transform="translate(192.973914, 256.232326)">
		<g>
			<path class="st0" d="M111.7,87.4c24.7,0,41.7-16,41.7-39.3c0-23.1-17-39.1-41.7-39.1C86.9,9,69.9,25,69.9,48.1
				C69.9,71.4,86.9,87.4,111.7,87.4z M91.1,48.1c0-12.2,8.5-20.7,20.6-20.7s20.4,8.5,20.4,20.7c0,12.2-8.4,20.7-20.4,20.7
				S91.1,60.3,91.1,48.1z"/>
		</g>
	</g>
</g>
<g>
	<g transform="translate(259.625865, 256.232326)">
		<g>
			<path class="st2" d="M142.4,87.4c22.3,0,38-16.2,38-39.3c0-22.8-15.7-39.1-38-39.1c-10.8,0-20,3.8-26.7,10.5l-2.4-8.5h-16v102.8
				h21.6V79.6C125.1,84.6,133.2,87.4,142.4,87.4z M118,48.1c0-12,8.5-20.7,20.6-20.7c12.2,0,20.6,8.7,20.6,20.7
				c0,12.2-8.4,20.7-20.6,20.7C126.5,68.8,118,60.3,118,48.1z"/>
		</g>
	</g>
</g>
<g>
	<g transform="translate(329.908542, 256.232326)">
		<g>
			<path class="st2" d="M150.4,87.4c9.8,0,18.6-3.4,24.5-10.3l2.3,8.4h16V11h-21.6v38.8c0,11.8-6.4,19-16.2,19
				c-9.1,0-14.6-6.4-14.6-17.3V11h-21.6v42.7C119.3,74.4,131.1,87.4,150.4,87.4z"/>
		</g>
	</g>
</g>
<g>
	<g transform="translate(396.150729, 256.232326)">
		<g>
			<path class="st2" d="M142.8,85.4h21.6V52.5c0-16,7.5-22,19.8-22h8.2V11h-8.1c-10.9,0-17.9,3-22.7,9.9l-2.8-9.9h-16V85.4z"/>
		</g>
	</g>
</g>
<g>
	<g transform="translate(440.808214, 256.232326)">
		<g>
			<path class="st2" d="M192.9,87.4c18.3,0,32.8-9.4,39.3-25.1h-21.8c-3.5,5-9.9,7.8-17,7.8c-9.8,0-17.4-5.5-19.4-15.7h59.7
				C234.8,27.1,218.7,9,193.2,9c-24.1,0-40.7,16-40.7,39.1C152.5,71.4,168.9,87.4,192.9,87.4z M174,40.7c2.4-9.1,9.8-14.6,19.3-14.6
				c9.9,0,17,5.5,19.4,14.6H174z"/>
		</g>
	</g>
</g>
<g>
	<g transform="translate(435.521688, 176.090045)">
		<g>
			<path class="st2" d="M154.7,46.5v1.2h-3.8v11h-1.4v-11h-3.8v-1.2H154.7z"/>
		</g>
	</g>
	<g transform="translate(443.012934, 176.090045)">
		<g>
			<path class="st2" d="M150.9,58.7h-1.3V46.5h2.1l3.7,10.4h0.2l3.7-10.4h2.1v12.2h-1.4v-10l-0.2,0l-3.6,10h-1.4l-3.6-10l-0.2,0
				V58.7z"/>
		</g>
	</g>
</g>
</svg>
