<?xml version="1.0" encoding="utf-8"?>
<!-- Generator: Adobe Illustrator 26.3.1, SVG Export Plug-In . SVG Version: 6.00 Build 0)  -->
<svg version="1.1" id="Layer_1" xmlns="http://www.w3.org/2000/svg" xmlns:xlink="http://www.w3.org/1999/xlink" x="0px" y="0px"
	 viewBox="0 0 768 480" style="enable-background:new 0 0 768 480;" xml:space="preserve">
<style type="text/css">
	.st0{fill:#8FD8FF;}
	.st1{fill:#015486;}
	.st2{clip-path:url(#SVGID_00000052102747971639851810000003271850532236268967_);}
</style>
<g>
	<g transform="translate(283.962058, 237.862013)">
		<g>
			<path class="st0" d="M117.4,79.3h15.8l13.4-35.8l13.3,35.8h15.8l21.7-58.8h-17.9L172.6,40l-5.8,16.6l-6-16.6l-7.3-19.5h-13.8
				L132.4,40l-6,16.5L120.5,40l-6.8-19.5h-18L117.4,79.3z"/>
		</g>
	</g>
</g>
<g>
	<g transform="translate(358.42442, 237.862013)">
		<g>
			<path class="st0" d="M147.6,80.4c8.7,0,15.9-2.8,20.9-7.9l1.9,6.8h12.7V43.9c0-15.6-10.5-25-28.1-25c-15,0-24.8,7.2-27,19.9h16.3
				c1-4.1,5.3-6.9,10.8-6.9c6.7,0,11.3,3.8,11.3,9.6v2.7h-21.3c-12.2,0-20,7.1-20,17.9C125.1,73.5,133.7,80.4,147.6,80.4z
				 M141.9,61.5c0-4,3.4-6.6,8.5-6.6h16.1c-0.3,7.9-6.5,13.3-15,13.3C145.7,68.2,141.9,65.5,141.9,61.5z"/>
		</g>
	</g>
</g>
<g>
	<g transform="translate(408.289683, 237.862013)">
		<g>
			<path class="st0" d="M172.9,79.3h10.7V64.5h-7.1c-6.7,0-9.8-3.2-9.8-10.1v-20h16.1V20.5h-16.1V5.3h-13.2l-1,7.6
				c-0.9,6-2.6,7.6-9,7.6h-5.3v13.9h11.4V57C149.8,71.3,158,79.3,172.9,79.3z"/>
		</g>
	</g>
</g>
<g>
	<g transform="translate(444.135457, 237.862013)">
		<g>
			<path class="st0" d="M184.3,80.9c14.4,0,25.9-7.4,31-19.8h-17.2c-2.8,3.9-7.8,6.2-13.4,6.2c-7.7,0-13.8-4.4-15.3-12.4h47.1
				c1-21.5-11.8-35.8-31.9-35.8c-19,0-32.1,12.6-32.1,30.9C152.4,68.2,165.4,80.9,184.3,80.9z M169.4,44c1.9-7.2,7.7-11.5,15.2-11.5
				c7.8,0,13.4,4.4,15.3,11.5H169.4z"/>
		</g>
	</g>
</g>
<g>
	<g transform="translate(495.259955, 237.862013)">
		<g>
			<path class="st0" d="M173.6,79.3h17v-26c0-12.7,5.9-17.3,15.7-17.3h6.5V20.5h-6.4c-8.6,0-14.1,2.3-17.9,7.8l-2.2-7.8h-12.7V79.3z
				"/>
		</g>
	</g>
</g>
<g>
	<g transform="translate(23.197085, 239.092741)">
		<g>
			<path class="st1" d="M38.9,81.3c15.9,0,25.5-6.9,25.5-18.2c0-9.6-7.2-15.8-21.7-18.7c-10.1-2-13.2-3.7-13.2-7.3
				c0-3.5,3.1-5.5,8.2-5.5c5.7,0,9.2,2.6,9.5,7.1h16.2c-0.8-12.4-10-19.4-25.7-19.4C22,19.3,13,25.7,13,37.1
				c0,9.7,6.7,15.6,21.7,18.3c9.1,1.6,12.9,3.9,12.9,7.6c0,3.5-3.1,5.6-8.5,5.6c-6.3,0-10.1-3-10.2-7.8H12.2
				C12.2,73.1,22.7,81.3,38.9,81.3z"/>
		</g>
	</g>
</g>
<g>
	<g transform="translate(65.797365, 239.092741)">
		<g>
			<path class="st1" d="M30.4,79.7h17V20.9h-17V79.7z M28,1.8c0,6.3,4.5,10.6,11,10.6c6.5,0,11-4.4,11-10.6S45.5-8.8,39-8.8
				C32.5-8.8,28-4.5,28,1.8z"/>
		</g>
	</g>
</g>
<g>
	<g transform="translate(87.979443, 239.092741)">
		<g>
			<path class="st1" d="M37.8,79.7h17V47.9c0-8.5,4.7-14,12-14c7.1,0,11.4,5.3,11.4,13.6v32.3h16.8V47.9c0-8.5,4.7-14,12-14
				c7.1,0,11.4,5.3,11.4,13.6v32.3h17V45.4c0-16.1-9.6-26.1-24.7-26.1c-9,0-16.4,3.5-21.2,9.6c-4.1-6.3-11-9.6-19.4-9.6
				c-7.5,0-13.9,2.6-18.2,7.6l-1.7-6.1H37.8V79.7z"/>
		</g>
	</g>
</g>
<g>
	<g transform="translate(169.819643, 239.092741)">
		<g>
			<path class="st1" d="M100.8,81.3c17.6,0,30-12.8,30-31c0-18-12.4-30.9-30-30.9c-8.5,0-15.8,3-21.1,8.3l-1.9-6.7H65.1v81.2h17v-27
				C87.1,79,93.5,81.3,100.8,81.3z M81.5,50.2c0-9.5,6.7-16.4,16.2-16.4c9.6,0,16.2,6.8,16.2,16.4c0,9.6-6.6,16.4-16.2,16.4
				C88.2,66.6,81.5,59.9,81.5,50.2z"/>
		</g>
	</g>
</g>
<g>
	<g transform="translate(225.359851, 239.092741)">
		<g>
			<path class="st1" d="M83.6,79.7h17V-3.2h-17V79.7z"/>
		</g>
	</g>
</g>
<g>
	<g transform="translate(247.541926, 239.092741)">
		<g>
			<path class="st1" d="M91.3,102.1h8c13.7,0,19.4-3.4,24.2-15.5l26.2-65.8h-18.3l-7.8,21.4l-5.4,15l-15.8-36.4H83.5L110,77.8
				l-0.7,2c-2,5.8-4.4,7.6-11.3,7.6h-6.7V102.1z"/>
		</g>
	</g>
</g>
<g>
	<defs>
		<rect id="SVGID_1_" x="148.7" y="48" width="448.3" height="190.7"/>
	</defs>
	<clipPath id="SVGID_00000098934216203479108210000009341198140340064905_">
		<use xlink:href="#SVGID_1_"  style="overflow:visible;"/>
	</clipPath>
	<g style="clip-path:url(#SVGID_00000098934216203479108210000009341198140340064905_);">
		<path class="st1" d="M449.4,190.9c0,0,0-0.1,0-0.1C449.5,190.8,449.5,190.8,449.4,190.9L449.4,190.9z M444,137.9
			c-0.3-0.3-0.6-0.6-0.9-0.9c5.5-8.1,10.9-16.3,16.4-24.4c0.8-1.2,1.8-2.9,2.8-3.1c11.4-1.2,16.2-9.8,21.6-19.8
			c4.8,7,9.3,12.7,12.8,19c3.5,6.4,8.5,9.9,15.5,11.4c3.2,0.7,6.4,1.4,8.4,4.8c15.4,27.4,36.6,48.4,68.9,58.5
			c-8.3,2.1-39.6-9-47.2-15.9c-2.1,6.4-4.1,12.6-6.2,18.7c-0.3-0.1-0.7-0.1-1-0.2c-1.1-7.7-2.1-15.4-3.3-23.1
			c-0.4-2.6,0.3-6.3-4-6.4c-3.6-0.1-7.7-1.7-10.3,2.8c-1.5,2.6-3.5,5-3.3,9.4c-7.3-9.9-1.8-19.2-2.3-29.1
			c-9.8-1.8-18.8-9.3-30.6-4.4c1.9-2.8,3.9-5.6,5.8-8.4c6.9-9.8,6.9-9.8-0.7-20.6c-8.5,5.9-19.9,8.4-22.2,21.2
			c-0.7,3.9-4.5,4.5-7,5.6c-2.7-0.5,0.1-3.7-3.2-3.6C450.1,131.2,448.1,136,444,137.9z M455.5,130c2.1-0.7,3.3-1.5,1.6-3.8
			C456.4,127.4,454.6,127.5,455.5,130z M184.8,197.4c-0.3-0.3-0.5-0.6-0.8-0.9c9.6-9.7,19.2-19.4,28.7-29.2
			c3.4-3.5,8.1-2.7,12.2-3.3c4.4-0.6,7.5-2.4,10.3-5.7c5.3-6.2,10.8-12,16.5-18.3c8.6,6.8,15.2,15.2,24.5,21.6
			c4.8-5.7,9.7-11.1,14.2-16.9c5-6.5,10.9-11.3,18.9-13.4c3.9-1,6.5-3.4,8.5-7c4.2-7.5,8.9-14.8,13.1-22.3c3.3-6,6.6-11.8,15.7-12.2
			c-5.2-9.9,2.1-14.4,7.1-19.9c6.6-7.2,13.2-14.3,20.2-21.9c4,8,7.9,15.2,11.1,22.6c4,9.4,10.2,16.6,19.5,21.2
			c10.1,4.9,17,12.5,21.5,22.9c4.5,10.2,10.4,19.8,15.6,29.7c1.1,2,2.4,3.6,4.4,4.6c13.1,6.5,22.2,17.1,31,28.3
			c8.5,10.7,17.3,21,26.1,31.5c-0.6,0-1.3,0-1.9,0c-0.8,0-1.6,0-2.4,0c-4.2-3.4-8.4-6.7-12.1-10.4c-6.9-6.9-14.3-11.1-24.9-6.7
			c-0.6,2.3-1.4,5.2,0.2,8.7c0.8,1.8,1,3.9,0.5,6.4c-0.9-0.1-1.9-0.2-2.9-0.3c-4.2-9.5-3.4-20.6-11-28.7c-1.2,4.9,2,8.8,0.9,13.1
			c-7.1-5.9-13-13.1-21.2-17.9c-4.2-2.5-8-5.6-12.8-6.9c-17.4-4.8-32-15.2-47.4-23.8c-3.5-2-5.1-5.7-6.8-9.1
			c-2.8-5.3-6.6-7.6-12.6-7.1c-3.7,0.3-7.5-0.2-12.7-0.5c9.2-9.7,17-18.5,25.4-26.5c4.6-4.4,11.5-1.8,17.3-3.6
			c2.4-10-1.7-17.4-9.3-24c-5.2,7.7-13.9,12.4-16.8,21.9c-0.1,0.4-0.6,0.8-1,1c-14.6,5.1-18.4,19.4-25.8,30.4
			c-5.2,7.7-9.1,16.4-22.3,17.5c24.8,13.6,49.1,24.9,62.5,47.8c-3.3-0.6-6.7-1.3-10.1-1.9c-10.6-7.8-22.2-14.1-34.7-18.5
			c-1.4-0.5-3.3-0.1-4.9,0.2c-2.4,0.4-4.6,1.3-7,1.7c-8.7,1.2-16.8,3.2-23.2,8.3l-10.1-0.2c-3.7,0-7.4,0.1-10.9,0.2
			c-1.4,0-2.8,0.1-4.2,0.2c3.9-3.2,7.6-6.8,10.2-11.9c-5.3-4.3-10.8-8.7-16.9-13.5c-2.4,7.2-1,13.4,2.5,21
			c-10.2-3.2-15.8,1.2-20.8,6.7c-4,0.6-7.9,1.2-11.6,1.9c-0.3-0.9-0.5-1.8-0.8-2.8c-3.4,1.8-6.5,3.5-9.7,5.2c-1.7,0.4-3.3,0.9-5,1.4
			c-0.3-2-0.5-3.9-0.9-6.6C199.9,187,192.3,192.2,184.8,197.4z M396.8,121.4c15.8,20.1,34.6,35.8,59.3,44.5c0.3-2.7-0.9-3.4-1.9-3.9
			c-12.4-6.1-20-16.6-27-28C421.3,124.3,408.8,119.4,396.8,121.4z M587.1,197.1c-3.5,3.3-7.3,6.4-11.2,9.1
			c-7.9,5.4-16.5,9.5-25.5,12.4c-18,5.8-37.2,6.9-56,5.4c-9.4-0.7-18.8-2.2-28.1-4.2c-4.6-1-9.2-2.2-13.7-3.4l-13.9-4.3l-7.1-2.2
			c-2.4-0.8-4.8-1.3-7.2-2c-4.8-1.3-9.6-2.7-14.4-4c-4.8-1.2-9.7-2.3-14.5-3.5c-4.8-1.2-9.7-2.1-14.6-3.2
			c-39.1-7.9-79.4-11.7-119.5-8.7c-20,1.6-39.9,4.9-59.2,10.6c-9.6,2.9-19,6.3-28.1,10.6c-4.5,2.1-8.9,4.4-13.3,6.9
			c-4.2,2.6-8.5,5.3-12.2,8.5c4.4-2.3,8.9-4.3,13.4-6c4.6-1.7,9.2-3.3,13.9-4.6c9.3-2.7,18.8-4.8,28.4-6.5
			c19.1-3.3,38.4-4.7,57.7-4.8c38.6-0.2,77.1,4.6,115.1,12.3c19,3.7,37.9,8.4,56.6,13.5l14.4,3.9c5,1.3,10.1,2.2,15.1,3
			c10.1,1.7,20.3,2.5,30.5,2.6c10.2,0.1,20.5-0.6,30.6-2.5c10.1-1.8,20-4.7,29.4-9c9.3-4.3,18-9.9,25.4-16.9
			c3.7-3.5,7.1-7.2,10.1-11.2c3-4,5.7-8.2,7.9-12.6C594,190.2,590.7,193.8,587.1,197.1z"/>
	</g>
</g>
<g>
	<g transform="translate(67.474732, 285.858873)">
		<g>
			<path class="st1" d="M26.9,95.3h2.4v-23l10.3,15.4h2l10.2-15.4v23h2.3V67.9h-2.2L40.5,85L29.1,67.9h-2.2V95.3z"/>
		</g>
	</g>
</g>
<g>
	<g transform="translate(97.847665, 285.858873)">
		<g>
			<path class="st1" d="M45.5,95.8c6.2,0,10.6-4.4,10.6-10.6c0-6.2-4.4-10.6-10.6-10.6c-6.3,0-10.6,4.4-10.6,10.6
				C34.9,91.4,39.3,95.8,45.5,95.8z M37.2,85.2c0-5,3.4-8.4,8.4-8.4c4.9,0,8.3,3.4,8.3,8.4c0,5-3.4,8.5-8.3,8.5
				C40.6,93.6,37.2,90.2,37.2,85.2z"/>
		</g>
	</g>
</g>
<g>
	<g transform="translate(120.531994, 285.858873)">
		<g>
			<path class="st1" d="M52.2,95.8c3.2,0,6-1.5,7.6-4.5l0.2,4h1.9V75.1h-2.3v10.4c0,4.8-2.9,8.1-7.1,8.1c-4,0-6.5-2.9-6.5-7.6v-11
				h-2.3v11.2C43.8,92.1,47,95.8,52.2,95.8z"/>
		</g>
	</g>
</g>
<g>
	<g transform="translate(143.157644, 285.858873)">
		<g>
			<path class="st1" d="M51.8,95.3H54V84.8c0-4.8,3-8.1,7.2-8.1c4,0,6.5,2.9,6.5,7.6v11h2.3V84.1c0-5.8-3.2-9.5-8.5-9.5
				c-3.2,0-6.1,1.5-7.7,4.4l-0.2-3.9h-1.9V95.3z"/>
		</g>
	</g>
</g>
<g>
	<g transform="translate(165.959367, 285.858873)">
		<g>
			<path class="st1" d="M67.6,95.3h2.9v-2.2h-2.9c-3.1,0-4.4-1.6-4.4-4.9V77.1h7v-2.1h-7v-5h-1.8l-0.2,3.1c-0.2,1.5-0.6,1.9-2.1,1.9
				h-2.6v2.1H61v11.2C61,92.9,63.3,95.3,67.6,95.3z"/>
		</g>
	</g>
</g>
<g>
	<g transform="translate(182.216963, 285.858873)">
		<g>
			<path class="st1" d="M71.1,95.6c3.6,0,6.6-1.4,8.3-3.8l0.2,3.5h1.9V82.1c0-4.5-3.5-7.6-8.5-7.6c-4.3,0-7.6,2.3-8.5,6.1h2.3
				c0.8-2.4,3.2-4,6.3-4c3.8,0,6.2,2.2,6.2,5.6v1.4h-8.9c-4.1,0-6.9,2.3-6.9,5.9C63.5,93.3,66.4,95.6,71.1,95.6z M65.7,89.5
				c0-2.3,1.9-3.8,4.7-3.8h8.9v0.9c0,4.1-3.4,7-8.1,7C67.8,93.6,65.7,92,65.7,89.5z"/>
		</g>
	</g>
</g>
<g>
	<g transform="translate(203.874188, 285.858873)">
		<g>
			<path class="st1" d="M72,95.3h2.3V75.1H72V95.3z M71,69.3c0,1.2,0.8,2.1,2.1,2.1c1.2,0,2.1-0.9,2.1-2.1c0-1.1-0.8-2-2.1-2
				C71.9,67.3,71,68.2,71,69.3z"/>
		</g>
	</g>
</g>
<g>
	<g transform="translate(214.966923, 285.858873)">
		<g>
			<path class="st1" d="M75.7,95.3H78V84.8c0-4.8,3-8.1,7.2-8.1c4,0,6.5,2.9,6.5,7.6v11H94V84.1c0-5.8-3.2-9.5-8.5-9.5
				c-3.2,0-6.1,1.5-7.7,4.4l-0.2-3.9h-1.9V95.3z"/>
		</g>
	</g>
</g>
<g>
	<g transform="translate(237.768646, 285.858873)">
	</g>
</g>
<g>
	<g transform="translate(248.978765, 285.858873)">
		<g>
			<path class="st1" d="M92.9,95.3h2.3L99,84.7l4.9-13.2l8.8,23.8h2.2l9-27.4h-2.5l-4,12.5l-3.6,11.2L105,67.9h-2.3l-4.5,12.5
				l-4.1,11.2l-3.6-11.2l-4.1-12.5h-2.5L92.9,95.3z"/>
		</g>
	</g>
</g>
<g>
	<g transform="translate(283.694904, 285.858873)">
		<g>
			<path class="st1" d="M104.9,95.6c3.6,0,6.6-1.4,8.3-3.8l0.2,3.5h1.9V82.1c0-4.5-3.5-7.6-8.5-7.6c-4.3,0-7.6,2.3-8.5,6.1h2.3
				c0.8-2.4,3.2-4,6.3-4c3.8,0,6.2,2.2,6.2,5.6v1.4h-8.9c-4.1,0-6.9,2.3-6.9,5.9C97.3,93.3,100.2,95.6,104.9,95.6z M99.6,89.5
				c0-2.3,1.9-3.8,4.7-3.8h8.9v0.9c0,4.1-3.4,7-8.1,7C101.6,93.6,99.6,92,99.6,89.5z"/>
		</g>
	</g>
</g>
<g>
	<g transform="translate(305.352121, 285.858873)">
		<g>
			<path class="st1" d="M114,95.3h2.9v-2.2h-2.9c-3.1,0-4.4-1.6-4.4-4.9V77.1h7v-2.1h-7v-5h-1.8l-0.2,3.1c-0.2,1.5-0.6,1.9-2.1,1.9
				H103v2.1h4.4v11.2C107.4,92.9,109.7,95.3,114,95.3z"/>
		</g>
	</g>
</g>
<g>
	<g transform="translate(321.609708, 285.858873)">
		<g>
			<path class="st1" d="M119.8,95.8c4.5,0,8.2-2.4,9.8-6.3l-2.5,0c-1.3,2.6-4,4.1-7.2,4.1c-4.5,0-7.6-3-8-7.5h18.4
				c0.2-6.8-4-11.5-10.3-11.5c-6.1,0-10.4,4.3-10.4,10.6C109.5,91.5,113.7,95.8,119.8,95.8z M111.8,84.1c0.4-4.5,3.6-7.4,8.1-7.4
				c4.4,0,7.5,2.8,8.1,7.4H111.8z"/>
		</g>
	</g>
</g>
<g>
	<g transform="translate(343.824527, 285.858873)">
		<g>
			<path class="st1" d="M118.6,95.3h2.3V86c0-6.1,2.9-8.8,7.2-8.8h1.8v-2.1h-1.7c-3.8,0-6.1,1.5-7.4,4.5l-0.2-4.5h-1.9V95.3z"/>
		</g>
	</g>
</g>
<g>
	<g transform="translate(359.90606, 285.858873)">
	</g>
</g>
<g>
	<g transform="translate(371.116161, 285.858873)">
		<g>
			<path class="st1" d="M136.6,95.8c6.2,0,10.6-4.4,10.6-10.6c0-6.2-4.4-10.6-10.6-10.6c-6.3,0-10.6,4.4-10.6,10.6
				C126,91.4,130.4,95.8,136.6,95.8z M128.2,85.2c0-5,3.4-8.4,8.4-8.4c4.9,0,8.3,3.4,8.3,8.4c0,5-3.4,8.5-8.3,8.5
				C131.6,93.6,128.2,90.2,128.2,85.2z"/>
		</g>
	</g>
</g>
<g>
	<g transform="translate(393.80048, 285.858873)">
		<g>
			<path class="st1" d="M135.3,95.3h2.3V84.8c0-4.8,3-8.1,7.2-8.1c4,0,6.5,2.9,6.5,7.6v11h2.3V84.1c0-5.8-3.2-9.5-8.5-9.5
				c-3.2,0-6.1,1.5-7.7,4.4l-0.2-3.9h-1.9V95.3z"/>
		</g>
	</g>
</g>
<g>
	<g transform="translate(416.602193, 285.858873)">
	</g>
</g>
<g>
	<g transform="translate(427.812294, 285.858873)">
		<g>
			<path class="st1" d="M153.5,95.3h2.3V70.2h9.5v-2.3h-21.2v2.3h9.4V95.3z"/>
		</g>
	</g>
</g>
<g>
	<g transform="translate(449.322786, 285.858873)">
		<g>
			<path class="st1" d="M160.1,95.6c3.6,0,6.6-1.4,8.3-3.8l0.2,3.5h1.9V82.1c0-4.5-3.5-7.6-8.5-7.6c-4.3,0-7.6,2.3-8.5,6.1h2.3
				c0.8-2.4,3.2-4,6.3-4c3.8,0,6.2,2.2,6.2,5.6v1.4h-8.9c-4.1,0-6.9,2.3-6.9,5.9C152.5,93.3,155.4,95.6,160.1,95.6z M154.8,89.5
				c0-2.3,1.9-3.8,4.7-3.8h8.9v0.9c0,4.1-3.4,7-8.1,7C156.9,93.6,154.8,92,154.8,89.5z"/>
		</g>
	</g>
</g>
<g>
	<g transform="translate(470.980004, 285.858873)">
		<g>
			<path class="st1" d="M171.8,95.8c6.1,0,10.4-4.5,10.4-10.6c0-6.1-4.2-10.6-10.4-10.6c-3.8,0-6.9,1.7-8.6,4.5l-0.2-4H161v28.1h2.3
				V91.5C165.1,94.1,168.1,95.8,171.8,95.8z M163.2,85.2c0-4.9,3.4-8.4,8.4-8.4s8.3,3.5,8.3,8.4c0,5-3.4,8.5-8.3,8.5
				S163.2,90.1,163.2,85.2z"/>
		</g>
	</g>
</g>
<g>
	<g transform="translate(532.532897, 192.76362)">
		<g>
			<path class="st0" d="M188.4,50.3v1.4H184v12.6h-1.6V51.7H178v-1.4H188.4z"/>
		</g>
	</g>
	<g transform="translate(541.087345, 192.76362)">
		<g>
			<path class="st0" d="M184,64.3h-1.5v-14h2.4l4.2,11.8h0.2l4.2-11.8h2.4v14h-1.6V52.9l-0.2,0L190,64.3h-1.6l-4.1-11.4l-0.2,0V64.3
				z"/>
		</g>
	</g>
</g>
</svg>
