<?xml version="1.0" encoding="utf-8"?>
<!-- Generator: Adobe Illustrator 26.3.1, SVG Export Plug-In . SVG Version: 6.00 Build 0)  -->
<svg version="1.1" id="Layer_1" xmlns="http://www.w3.org/2000/svg" xmlns:xlink="http://www.w3.org/1999/xlink" x="0px" y="0px"
	 viewBox="0 0 768 480" style="enable-background:new 0 0 768 480;" xml:space="preserve">
<style type="text/css">
	.st0{fill:#8FD8FF;}
	.st1{fill:#FFFFFF;}
</style>
<g>
	<g transform="translate(284.172382, 200.561987)">
		<g>
			<path class="st0" d="M116.3,66.9h15l12.7-34l12.6,34h15l20.6-55.7h-17l-6.6,18.5l-5.5,15.7l-5.7-15.7l-6.9-18.5h-13.1l-6.9,18.5
				l-5.7,15.6l-5.5-15.6l-6.5-18.5H95.7L116.3,66.9z"/>
		</g>
	</g>
</g>
<g>
	<g transform="translate(354.756444, 200.561987)">
		<g>
			<path class="st0" d="M144.9,67.9c8.3,0,15.1-2.7,19.8-7.5l1.8,6.5h12V33.3c0-14.8-10-23.7-26.6-23.7c-14.2,0-23.6,6.8-25.6,18.9
				h15.5c1-3.9,5-6.6,10.2-6.6c6.4,0,10.7,3.6,10.7,9.1v2.5h-20.2c-11.6,0-19,6.7-19,17C123.6,61.3,131.7,67.9,144.9,67.9z
				 M139.5,50c0-3.8,3.2-6.3,8.1-6.3h15.3c-0.3,7.5-6.2,12.6-14.2,12.6C143.1,56.3,139.5,53.8,139.5,50z"/>
		</g>
	</g>
</g>
<g>
	<g transform="translate(402.024523, 200.561987)">
		<g>
			<path class="st0" d="M168.9,66.9h10.2v-14h-6.7c-6.4,0-9.3-3.1-9.3-9.6v-19h15.3V11.1h-15.3V-3.3h-12.5l-1,7.2
				c-0.8,5.7-2.4,7.2-8.5,7.2h-5v13.2H147v21.4C147,59.3,154.8,66.9,168.9,66.9z"/>
		</g>
	</g>
</g>
<g>
	<g transform="translate(436.003306, 200.561987)">
		<g>
			<path class="st0" d="M179.7,68.3c13.7,0,24.5-7,29.4-18.8h-16.3c-2.7,3.7-7.4,5.8-12.7,5.8c-7.3,0-13.1-4.1-14.5-11.8h44.7
				c1-20.4-11.1-34-30.2-34c-18,0-30.5,12-30.5,29.3C149.5,56.3,161.8,68.3,179.7,68.3z M165.6,33.4c1.8-6.8,7.3-10.9,14.4-10.9
				c7.4,0,12.7,4.1,14.5,10.9H165.6z"/>
		</g>
	</g>
</g>
<g>
	<g transform="translate(484.465034, 200.561987)">
		<g>
			<path class="st0" d="M169.6,66.9h16.1V42.2c0-12,5.6-16.4,14.9-16.4h6.2V11.1h-6c-8.2,0-13.4,2.2-17,7.4l-2.1-7.4h-12V66.9z"/>
		</g>
	</g>
</g>
<g>
	<g transform="translate(36.989078, 201.728613)">
		<g>
			<path class="st1" d="M41.9,68.7c15.1,0,24.2-6.6,24.2-17.2c0-9.1-6.8-15-20.6-17.7c-9.6-1.9-12.5-3.5-12.5-6.9
				c0-3.3,3-5.2,7.8-5.2c5.4,0,8.7,2.4,9,6.7h15.4C64.4,16.6,55.7,10,40.8,10c-15,0-23.5,6.1-23.5,16.9c0,9.2,6.4,14.8,20.6,17.3
				c8.6,1.5,12.2,3.7,12.2,7.2c0,3.3-3,5.3-8.1,5.3c-5.9,0-9.6-2.9-9.7-7.4H16.6C16.6,61,26.6,68.7,41.9,68.7z"/>
		</g>
	</g>
</g>
<g>
	<g transform="translate(77.370563, 201.728613)">
		<g>
			<path class="st1" d="M33.9,67.2H50V11.5H33.9V67.2z M31.5-6.6c0,6,4.2,10.1,10.4,10.1S52.3-0.6,52.3-6.6
				c0-5.9-4.2-10.1-10.4-10.1S31.5-12.5,31.5-6.6z"/>
		</g>
	</g>
</g>
<g>
	<g transform="translate(98.39731, 201.728613)">
		<g>
			<path class="st1" d="M40.9,67.2H57V37.1c0-8.1,4.5-13.3,11.4-13.3c6.7,0,10.8,5,10.8,12.9v30.6h15.9V37.1
				c0-8.1,4.5-13.3,11.4-13.3c6.7,0,10.8,5,10.8,12.9v30.6h16.1V34.7c0-15.3-9.1-24.8-23.4-24.8c-8.5,0-15.5,3.3-20.1,9.1
				C86.1,13.2,79.6,10,71.7,10c-7.1,0-13.2,2.4-17.2,7.2l-1.6-5.7h-12V67.2z"/>
		</g>
	</g>
</g>
<g>
	<g transform="translate(175.974942, 201.728613)">
		<g>
			<path class="st1" d="M100.5,68.7c16.7,0,28.5-12.1,28.5-29.4c0-17.1-11.8-29.3-28.5-29.3c-8.1,0-15,2.9-20,7.9l-1.8-6.4h-12v77
				h16.1V62.9C87.5,66.6,93.6,68.7,100.5,68.7z M82.2,39.3c0-9,6.4-15.5,15.4-15.5c9.1,0,15.4,6.5,15.4,15.5
				c0,9.1-6.3,15.5-15.4,15.5C88.6,54.8,82.2,48.4,82.2,39.3z"/>
		</g>
	</g>
</g>
<g>
	<g transform="translate(228.622393, 201.728613)">
		<g>
			<path class="st1" d="M84.3,67.2h16.1v-78.6H84.3V67.2z"/>
		</g>
	</g>
</g>
<g>
	<g transform="translate(249.649136, 201.728613)">
		<g>
			<path class="st1" d="M91.5,88.5H99c13,0,18.4-3.2,22.9-14.7l24.9-62.3h-17.3l-7.4,20.3L117,46l-15-34.5H84.2l25.1,54l-0.6,1.9
				c-1.9,5.5-4.1,7.2-10.7,7.2h-6.4V88.5z"/>
		</g>
	</g>
</g>
<g>
	<g transform="translate(519.796674, 157.812508)">
		<g>
			<path class="st0" d="M183.6,39.4v1.3h-4.1v11.9h-1.5V40.7h-4.2v-1.3H183.6z"/>
		</g>
	</g>
	<g transform="translate(527.905572, 157.812508)">
		<g>
			<path class="st0" d="M179.4,52.6H178V39.4h2.3l4,11.2h0.2l4-11.2h2.2v13.2h-1.5V41.8l-0.2,0l-3.9,10.8h-1.5l-3.9-10.8l-0.2,0
				V52.6z"/>
		</g>
	</g>
</g>
</svg>
