<?xml version="1.0" standalone="no"?>
<!DOCTYPE svg PUBLIC "-//W3C//DTD SVG 20010904//EN"
 "http://www.w3.org/TR/2001/REC-SVG-20010904/DTD/svg10.dtd">
<svg version="1.0" xmlns="http://www.w3.org/2000/svg"
 width="755.000000pt" height="755.000000pt" viewBox="0 0 755.000000 755.000000"
 preserveAspectRatio="xMidYMid meet">
<metadata>
Created by potrace 1.14, written by Peter Selinger 2001-2017
</metadata>
<g transform="translate(0.000000,755.000000) scale(0.100000,-0.100000)"
fill="#000000" stroke="none">
<path d="M3728 5343 c-25 -26 -58 -61 -73 -78 -39 -44 -146 -157 -242 -258
-118 -123 -142 -186 -104 -279 10 -27 9 -28 -17 -28 -16 0 -51 -12 -80 -26
-65 -32 -94 -73 -258 -354 -69 -118 -142 -231 -163 -251 -22 -21 -59 -43 -92
-54 -131 -42 -219 -106 -317 -229 -31 -39 -66 -82 -78 -96 -12 -14 -50 -58
-84 -97 -34 -40 -66 -73 -72 -73 -14 0 -92 64 -183 151 -101 97 -180 169 -204
185 -16 12 -26 4 -92 -68 -41 -45 -79 -86 -85 -92 -5 -6 -42 -48 -82 -92 -95
-109 -124 -123 -287 -139 -38 -4 -71 -14 -90 -27 -44 -32 -493 -491 -491 -503
0 -5 4 -9 7 -8 3 1 88 58 190 128 l184 126 8 -52 9 -51 36 7 c21 4 75 27 121
51 47 24 86 44 87 44 1 0 4 -9 7 -21 5 -19 11 -20 49 -15 24 4 59 9 78 12 19
2 43 6 53 7 9 2 36 21 60 44 73 70 170 102 254 83 20 -5 39 -7 41 -6 1 2 -9
39 -24 82 -26 79 -33 159 -20 222 4 17 11 32 14 32 4 0 68 -49 143 -109 l136
-108 -23 -39 c-13 -21 -51 -66 -83 -99 l-60 -60 212 3 c152 2 216 7 227 16 54
45 172 90 290 110 47 8 112 22 145 30 98 26 125 21 305 -60 111 -51 342 -185
378 -221 7 -7 19 -13 25 -14 7 0 21 -2 32 -4 81 -17 120 -23 123 -21 8 9 -97
145 -173 223 -81 84 -244 216 -335 270 -101 61 -289 169 -397 228 -68 36 -123
69 -123 72 0 4 2 4 5 1 10 -9 87 11 135 35 24 12 63 40 86 62 47 45 159 210
224 330 104 193 189 289 297 340 51 23 61 32 77 71 21 52 69 114 147 195 30
30 69 73 87 95 l33 39 55 -58 c94 -101 125 -203 99 -324 -5 -19 -12 -23 -48
-24 -194 -3 -207 -10 -379 -190 -242 -253 -277 -293 -266 -300 6 -4 65 -8 132
-8 66 -1 137 -6 156 -11 45 -12 89 -58 131 -137 18 -35 46 -75 63 -91 34 -32
360 -224 501 -295 110 -55 194 -90 300 -124 124 -39 304 -155 440 -283 98 -93
142 -130 147 -125 3 3 1 26 -3 53 -5 26 -11 72 -15 102 -6 51 -6 54 10 41 39
-33 105 -186 119 -279 3 -17 15 -65 27 -106 19 -62 26 -75 46 -79 13 -2 26 -2
29 1 11 11 4 73 -11 112 -12 28 -14 54 -9 86 6 40 11 47 42 60 19 8 66 15 103
15 88 0 169 -37 255 -117 33 -31 97 -87 141 -125 69 -58 87 -69 118 -69 l37 0
-56 68 c-31 37 -66 78 -78 92 -13 14 -43 50 -67 80 -25 30 -49 60 -55 66 -26
29 -132 158 -180 219 -181 230 -359 395 -490 455 -59 27 -78 52 -163 210 -19
36 -38 70 -43 76 -5 6 -54 101 -108 211 -145 290 -208 363 -410 469 -92 49
-197 145 -250 229 -23 35 -41 67 -41 71 0 7 -185 383 -198 402 -7 10 -20 2
-54 -35z m672 -1183 c82 -24 176 -84 222 -141 19 -24 60 -82 90 -129 104 -162
247 -306 362 -366 54 -28 66 -39 66 -65 0 -54 -418 170 -602 323 -84 70 -240
226 -318 318 l-64 75 30 6 c47 9 144 0 214 -21z"/>
<path d="M5588 4679 c-8 -13 -30 -51 -49 -83 -66 -115 -193 -216 -272 -216
-12 0 -27 -4 -33 -8 -15 -10 -304 -440 -304 -452 0 -24 31 -5 90 54 35 36 74
67 85 70 12 3 27 17 33 31 7 15 17 23 22 20 16 -10 12 -33 -10 -48 -13 -9 -17
-20 -13 -36 5 -19 10 -22 36 -17 54 11 91 48 106 107 27 106 88 170 250 262
l114 65 29 -39 c48 -67 70 -116 65 -147 -6 -39 -17 -58 -103 -183 l-72 -106
51 14 c82 21 152 11 312 -46 28 -10 68 -24 90 -31 22 -7 43 -18 47 -24 7 -11
1 -109 -12 -167 -19 -93 1 -229 42 -282 13 -17 14 -16 16 13 3 41 52 129 86
154 24 18 82 23 141 11 11 -2 23 -4 27 -4 11 -1 29 -40 33 -69 2 -15 6 -47 9
-72 3 -25 8 -61 10 -80 3 -19 13 -84 22 -145 8 -60 19 -114 24 -118 6 -7 40
70 45 103 0 3 13 43 29 90 15 47 29 91 32 98 3 11 12 9 37 -8 145 -98 520
-232 672 -240 68 -4 66 2 -10 31 -218 80 -447 218 -600 360 -22 21 -51 48 -65
61 -100 92 -282 330 -355 463 -45 82 -86 118 -149 129 -41 7 -96 26 -137 47
-40 20 -126 104 -135 133 -6 17 -60 99 -162 246 -61 87 -58 85 -74 59z"/>
<path d="M2237 3084 c-1 -1 -78 -4 -170 -7 -93 -4 -171 -8 -175 -11 -4 -2 -45
-7 -92 -10 -47 -3 -96 -8 -110 -11 -14 -2 -52 -7 -85 -10 -33 -3 -78 -10 -100
-15 -22 -5 -58 -11 -80 -14 -182 -27 -559 -122 -660 -166 -11 -5 -31 -12 -45
-15 -50 -14 -287 -118 -380 -167 -92 -49 -290 -174 -290 -184 0 -3 8 -1 18 4
120 63 337 140 547 193 118 30 336 75 405 84 146 19 191 25 235 30 28 3 60 7
73 10 12 2 78 7 145 10 67 4 133 8 147 11 32 5 618 5 685 0 28 -2 110 -7 183
-11 74 -4 142 -8 152 -10 10 -2 47 -6 82 -10 35 -3 79 -8 98 -10 19 -2 64 -7
100 -10 36 -4 79 -9 95 -11 108 -13 131 -16 135 -19 3 -2 34 -6 70 -10 36 -3
72 -8 80 -10 8 -3 35 -7 60 -10 25 -3 65 -9 90 -14 25 -5 72 -14 105 -20 33
-6 97 -18 143 -27 45 -8 95 -18 110 -20 15 -3 43 -9 62 -14 19 -5 51 -11 70
-14 35 -5 215 -46 410 -92 58 -14 215 -55 350 -90 135 -36 272 -72 305 -80 33
-8 79 -20 102 -26 23 -6 55 -12 70 -14 15 -1 55 -8 88 -14 33 -6 85 -13 115
-16 30 -3 66 -8 80 -11 44 -9 552 -12 615 -3 33 5 83 11 110 14 64 8 224 42
259 56 14 5 26 8 26 6 0 -10 204 63 295 104 84 39 206 111 285 168 117 85 271
248 351 370 67 103 92 155 47 96 -39 -51 -161 -168 -234 -226 -182 -145 -407
-252 -644 -307 -91 -22 -105 -24 -220 -42 -90 -14 -484 -20 -590 -9 -170 18
-200 22 -300 40 -115 20 -366 76 -390 87 -8 3 -33 12 -55 18 -22 7 -78 25
-125 40 -47 15 -98 31 -115 35 -16 5 -104 29 -195 55 -295 83 -762 189 -965
219 -22 3 -51 8 -65 11 -29 5 -75 11 -145 20 -27 4 -57 8 -65 10 -34 9 -259
33 -375 41 -44 3 -91 7 -105 10 -48 8 -614 24 -623 18z"/>
</g>
</svg>
